# File created by Blade
# Date/Time:  Thu Jan 22 19:18:16 2015
# Frame Rate: 120.000 fps
#------------------------------------------------------
:FULLY-SPECIFIED
:DEGREES
781
root 1.892280 32.055890 -7.428439 98.791270 -2.646037 4.365994
RightUpLeg -103.748852 -21.380451 -5.692166
RightLeg 2.230495 -0.000000 -0.000000
RightFoot -3.096315 -3.727118 17.847343
RightToeBase 7.040293 -0.000000 -0.000000
LeftUpLeg -105.515285 13.357441 2.579318
LeftLeg 5.374847 -0.000000 -0.000000
LeftFoot -2.595899 7.078125 -26.904341
LeftToeBase 8.544130 -0.000000 -0.000000
Spine 46.632646 -2.875457 -3.700232
RightShoulder 2.357793 23.829158 -38.092449
RightArm 59.147429 34.321677 55.343290
RightForeArm -42.277537 -0.000000 56.013200
RightHand 16.019787 -0.000000 -35.730394
RightHandThumb1 -24.326973 -0.000000 -32.862282
LeftShoulder 1.837017 -37.161368 49.232236
LeftArm 26.620621 -30.216103 -44.141128
LeftForeArm 53.271046 -0.000000 65.326288
LeftHand -6.161581 0.000000 32.059674
LeftHandThumb1 -26.253704 0.000000 33.147579
Head -55.425106 -1.412788 2.144197
782
root 1.893852 32.056342 -7.436010 98.724117 -2.625671 4.365614
RightUpLeg -103.695288 -21.372397 -5.700338
RightLeg 2.246441 -0.000000 -0.000000
RightFoot -3.086394 -3.744403 17.871911
RightToeBase 7.046787 -0.000000 -0.000000
LeftUpLeg -105.477512 13.348089 2.598576
LeftLeg 5.398382 -0.000000 -0.000000
LeftFoot -2.590965 7.086845 -26.928070
LeftToeBase 8.519752 -0.000000 -0.000000
Spine 46.658123 -2.860903 -3.689605
RightShoulder 2.357074 23.793056 -38.079313
RightArm 59.189727 34.313565 55.311152
RightForeArm -42.293045 -0.000000 55.892406
RightHand 15.987107 0.000000 -35.686452
RightHandThumb1 -24.326973 -0.000000 -32.862282
LeftShoulder 1.864147 -37.167972 49.266193
LeftArm 26.630379 -30.196459 -44.160271
LeftForeArm 53.294759 -0.000000 65.238467
LeftHand -6.173546 0.000000 32.045030
LeftHandThumb1 -26.253704 0.000000 33.147579
Head -55.359913 -1.420132 2.163291
783
root 1.896222 32.055274 -7.444219 98.636705 -2.620336 4.360988
RightUpLeg -103.625535 -21.358761 -5.716190
RightLeg 2.253870 -0.000000 -0.000000
RightFoot -3.075008 -3.751707 17.881265
RightToeBase 7.095031 -0.000000 -0.000000
LeftUpLeg -105.411136 13.350955 2.630795
LeftLeg 5.417620 -0.000000 -0.000000
LeftFoot -2.602838 7.088033 -26.929142
LeftToeBase 8.546453 -0.000000 -0.000000
Spine 46.691661 -2.849361 -3.702558
RightShoulder 2.355215 23.969828 -38.077110
RightArm 59.028141 34.163057 55.204287
RightForeArm -42.321403 -0.000000 55.771950
RightHand 15.961551 -0.000000 -35.649666
RightHandThumb1 -24.326973 -0.000000 -32.862282
LeftShoulder 1.888538 -37.216480 49.286175
LeftArm 26.614230 -30.113123 -44.134836
LeftForeArm 53.295586 0.000000 65.120237
LeftHand -6.198795 -0.000000 32.021719
LeftHandThumb1 -26.253704 0.000000 33.147579
Head -55.298181 -1.431086 2.150490
784
root 1.897608 32.055447 -7.454317 98.553116 -2.602974 4.379517
RightUpLeg -103.559333 -21.368418 -5.725676
RightLeg 2.265863 -0.000000 -0.000000
RightFoot -3.061821 -3.752053 17.887328
RightToeBase 7.081537 -0.000000 -0.000000
LeftUpLeg -105.294256 13.369883 2.851839
LeftLeg 5.398885 -0.000000 -0.000000
LeftFoot -2.642131 7.256558 -26.963327
LeftToeBase 8.549909 -0.000000 -0.000000
Spine 46.710120 -2.876531 -3.705160
RightShoulder 2.368562 23.877989 -38.068317
RightArm 59.159215 34.164555 55.223128
RightForeArm -42.287488 0.000000 55.626300
RightHand 16.007855 0.000000 -35.558625
RightHandThumb1 -24.326973 -0.000000 -32.862282
LeftShoulder 1.910379 -37.191905 49.285701
LeftArm 26.639518 -30.041428 -44.069042
LeftForeArm 53.273650 -0.000000 64.955801
LeftHand -6.167605 -0.000000 32.074118
LeftHandThumb1 -26.253704 0.000000 33.147579
Head -55.247460 -1.429794 2.117152
785
root 1.898394 32.054721 -7.463841 98.468848 -2.580781 4.381666
RightUpLeg -103.482568 -21.363792 -5.747450
RightLeg 2.273771 -0.000000 -0.000000
RightFoot -3.044017 -3.765806 17.856159
RightToeBase 7.024275 -0.000000 -0.000000
LeftUpLeg -105.238548 13.377313 2.918561
LeftLeg 5.425919 -0.000000 -0.000000
LeftFoot -2.616750 7.267224 -26.959672
LeftToeBase 8.498418 -0.000000 -0.000000
Spine 46.716514 -2.944615 -3.736954
RightShoulder 2.392789 24.034093 -38.076747
RightArm 59.140907 33.968997 55.195781
RightForeArm -42.349201 -0.000000 55.429769
RightHand 15.916707 0.000000 -35.563767
RightHandThumb1 -24.326973 -0.000000 -32.862282
LeftShoulder 1.903461 -37.094699 49.274686
LeftArm 26.646921 -29.974921 -43.975419
LeftForeArm 53.233974 -0.000000 64.819169
LeftHand -6.152271 0.000000 32.003596
LeftHandThumb1 -26.253704 0.000000 33.147579
Head -55.188506 -1.444377 2.065265
786
root 1.898864 32.053584 -7.474514 98.358424 -2.565414 4.377198
RightUpLeg -103.391143 -21.347661 -5.773537
RightLeg 2.293654 -0.000000 -0.000000
RightFoot -3.050234 -3.767702 17.880492
RightToeBase 7.081189 -0.000000 -0.000000
LeftUpLeg -105.152233 13.389635 2.997991
LeftLeg 5.457940 -0.000000 -0.000000
LeftFoot -2.630516 7.300395 -26.954562
LeftToeBase 8.512881 -0.000000 -0.000000
Spine 46.731474 -3.019983 -3.804903
RightShoulder 2.475347 23.990455 -38.006261
RightArm 59.361234 33.901157 55.198311
RightForeArm -42.312593 -0.000000 55.168772
RightHand 15.902850 0.000000 -35.466736
RightHandThumb1 -24.326973 -0.000000 -32.862282
LeftShoulder 1.931034 -36.915669 49.266374
LeftArm 26.637796 -29.961270 -43.852253
LeftForeArm 53.159630 -0.000000 64.702786
LeftHand -6.174507 0.000000 31.864129
LeftHandThumb1 -26.253704 0.000000 33.147579
Head -55.104803 -1.396165 1.995825
787
root 1.901004 32.051936 -7.486628 98.286889 -2.547645 4.381571
RightUpLeg -103.336127 -21.355198 -5.807647
RightLeg 2.318074 -0.000000 -0.000000
RightFoot -3.053768 -3.787312 17.890695
RightToeBase 7.080849 -0.000000 -0.000000
LeftUpLeg -105.113434 13.396997 3.092395
LeftLeg 5.509460 -0.000000 -0.000000
LeftFoot -2.657478 7.347924 -26.973370
LeftToeBase 8.520599 -0.000000 -0.000000
Spine 46.690258 -2.976287 -3.783890
RightShoulder 2.457233 23.968045 -38.038307
RightArm 59.277167 33.822711 55.191233
RightForeArm -42.345130 -0.000000 55.083325
RightHand 15.862048 -0.000000 -35.197867
RightHandThumb1 -24.326973 -0.000000 -32.862282
LeftShoulder 1.954881 -36.933917 49.297023
LeftArm 26.710908 -29.813138 -43.876970
LeftForeArm 53.199785 -0.000000 64.552854
LeftHand -6.203783 -0.000000 31.707727
LeftHandThumb1 -26.253704 0.000000 33.147579
Head -55.043782 -1.449623 2.045376
